<svg width="1200" height="720" viewBox="0 0 1200 720" fill="none" xmlns="http://www.w3.org/2000/svg">
  <defs>
    <linearGradient id="g2" x1="200" y1="100" x2="1000" y2="620" gradientUnits="userSpaceOnUse">
      <stop stop-color="#0C1A2E"/>
      <stop offset="1" stop-color="#16334F"/>
    </linearGradient>
  </defs>
  <rect width="1200" height="720" rx="32" fill="url(#g2)"/>
  <circle cx="240" cy="190" r="140" fill="#34D399" fill-opacity="0.14"/>
  <circle cx="960" cy="520" r="210" fill="#14B8A6" fill-opacity="0.12"/>
  <rect x="150" y="120" width="900" height="480" rx="28" stroke="#D7FFF3" stroke-opacity="0.18" stroke-width="4"/>
  <path d="M360 460C360 370 400 300 470 250C540 200 640 200 710 250C780 300 820 370 820 460" stroke="#34D399" stroke-width="20" stroke-linecap="round"/>
  <path d="M520 390C540 310 610 260 680 250" stroke="#86EFAC" stroke-width="12" stroke-linecap="round"/>
  <path d="M520 392C470 350 430 320 390 290" stroke="#6EE7B7" stroke-width="12" stroke-linecap="round"/>
  <rect x="320" y="500" width="560" height="30" rx="15" fill="#0B1528" fill-opacity="0.65"/>
  <text x="210" y="160" fill="#E9FFF7" font-family="Arial, Helvetica, sans-serif" font-size="52" font-weight="700">HidroGrow</text>
  <text x="210" y="208" fill="#9CC5BA" font-family="Arial, Helvetica, sans-serif" font-size="22">Web application for smarter growth</text>
</svg>
